<svg xmlns="http://www.w3.org/2000/svg" viewBox="0 0 284.49 273"><defs><style>.cls-1,.cls-2{fill:none;stroke-miterlimit:10;stroke-width:11px;}.cls-1{stroke:#000;}.cls-2{stroke:#efb912;}.cls-3{fill:#efb912;}</style></defs><g id="Calque_2" data-name="Calque 2"><g id="Calque_1-2" data-name="Calque 1"><path class="cls-1" d="M142.06,39.66A145.31,145.31,0,0,0,5.87,134.5a145.2,145.2,0,0,0,272.38,0A145.31,145.31,0,0,0,142.06,39.66Z"/><circle class="cls-1" cx="142.06" cy="134.74" r="94.65"/><path class="cls-1" d="M200,189.53c23.41,21.27,44.41,43.27,67.78,64.45"/><path class="cls-1" d="M16.33,15c17.06,16.84,34.54,33.25,52,49.65q7.44,7,14.87,14"/><path class="cls-1" d="M197.12,76.6c16.43-17.14,31.56-35.53,47.57-53.08,4.64-5.09,9.35-10.11,14.17-15"/><path class="cls-1" d="M22.82,260.48c21.6-22.68,44.6-43.68,64.85-67.75"/><circle class="cls-2" cx="142.06" cy="134.74" r="84.48"/><circle class="cls-3" cx="57.84" cy="13.02" r="1.5"/><circle class="cls-3" cx="96.9" cy="7.08" r="0.48"/><circle class="cls-3" cx="70.32" cy="27.66" r="1.14"/><circle class="cls-3" cx="103.98" cy="20.04" r="0.96"/><circle class="cls-3" cx="126.72" cy="3.78" r="1.86"/><circle class="cls-3" cx="134.04" cy="19.86" r="0.78"/><circle class="cls-3" cx="117.6" cy="13.02" r="1.5"/><circle class="cls-3" cx="113.28" cy="30.9" r="1.02"/><circle class="cls-3" cx="81.83" cy="37.7" r="2.39"/><circle class="cls-3" cx="155.4" cy="22.02" r="1.02"/><circle class="cls-3" cx="144.72" cy="8.34" r="0.78"/><circle class="cls-3" cx="214.39" cy="38.9" r="1.19"/><circle class="cls-3" cx="201.5" cy="26.93" r="1.49"/><circle class="cls-3" cx="166.86" cy="6.12" r="0.48"/><circle class="cls-3" cx="204.15" cy="1.17" r="1.17"/><circle class="cls-3" cx="198.42" cy="10.71" r="1.59"/><circle class="cls-3" cx="181.41" cy="17.47" r="0.49"/><circle class="cls-3" cx="170.91" cy="15.99" r="1.47"/><circle class="cls-3" cx="216.3" cy="4.73" r="1.09"/><circle class="cls-3" cx="220.83" cy="21.51" r="0.51"/><circle class="cls-3" cx="210.51" cy="13.41" r="1.11"/><circle class="cls-3" cx="237.69" cy="14.75" r="1.33"/><circle class="cls-3" cx="1.32" cy="132.44" r="0.78"/><circle class="cls-3" cx="6.79" cy="155.31" r="1.02"/><circle class="cls-3" cx="8.78" cy="112.31" r="1.02"/><circle class="cls-3" cx="25.11" cy="68.93" r="1.49"/><circle class="cls-3" cx="20.34" cy="87.94" r="0.57"/><path class="cls-3" d="M4.81,88.9l-.19.73-.18.72.18-.72Z"/><circle class="cls-3" cx="8.64" cy="67.83" r="1.59"/><circle class="cls-3" cx="10.91" cy="86" r="0.49"/><circle class="cls-3" cx="6.84" cy="95.78" r="1.47"/><path class="cls-3" d="M1.77,109.44l.27-1,.26-1-.26,1Z"/><circle class="cls-3" cx="18.55" cy="42.44" r="1.62"/><circle class="cls-3" cx="24.73" cy="48.85" r="0.51"/><circle class="cls-3" cx="12.05" cy="180.61" r="2.25"/><circle class="cls-3" cx="12.05" cy="198.35" r="1.14"/><circle class="cls-3" cx="41.09" cy="59.43" r="2.63"/><circle class="cls-3" cx="29.02" cy="54.38" r="2.42"/><circle class="cls-3" cx="74.42" cy="232.36" r="2.96"/><circle class="cls-3" cx="243.56" cy="52.32" r="2.06"/><circle class="cls-3" cx="256.66" cy="41.86" r="2.2"/><circle class="cls-3" cx="264.78" cy="72.09" r="1.68"/><circle class="cls-3" cx="279.59" cy="92.11" r="1.76"/><circle class="cls-3" cx="270.19" cy="88.05" r="1.57"/><circle class="cls-3" cx="282.91" cy="109.72" r="1.57"/><circle class="cls-3" cx="241.24" cy="206.69" r="2.22"/><circle class="cls-3" cx="261.94" cy="191.36" r="3.08"/><circle class="cls-3" cx="283.7" cy="163.33" r="0.79"/><circle class="cls-3" cx="276.07" cy="174.2" r="1.76"/><circle class="cls-3" cx="275.69" cy="189.65" r="1.37"/><circle class="cls-3" cx="214.74" cy="220.77" r="1.55"/><circle class="cls-3" cx="204.15" cy="232.65" r="1.17"/><circle class="cls-3" cx="138.4" cy="262.39" r="1.17"/><circle class="cls-3" cx="176.75" cy="245.14" r="1.18"/><circle class="cls-3" cx="120.95" cy="258.58" r="1.18"/><circle class="cls-3" cx="81.71" cy="253.42" r="1.18"/><circle class="cls-3" cx="155.73" cy="246.75" r="2.79"/><circle class="cls-3" cx="206.78" cy="248.96" r="2.63"/><circle class="cls-3" cx="243.04" cy="250.76" r="1.8"/><circle class="cls-3" cx="190.02" cy="266.64" r="1.08"/><circle class="cls-3" cx="191.84" cy="243.71" r="2.63"/><circle class="cls-3" cx="158.52" cy="261.71" r="2.63"/><circle class="cls-3" cx="95.1" cy="239.16" r="1.92"/><circle class="cls-3" cx="111.3" cy="271.08" r="1.92"/></g></g></svg>