<svg xmlns="http://www.w3.org/2000/svg" viewBox="0 0 44.04 57.9"><defs><style>.cls-1,.cls-2{fill:none;stroke:#fff;stroke-miterlimit:10;}.cls-1{stroke-width:3px;}.cls-2{stroke-width:2px;}.cls-3{fill:#fff;}</style></defs><g id="Calque_2" data-name="Calque 2"><g id="Calque_1-2" data-name="Calque 1"><circle class="cls-1" cx="22.02" cy="22.02" r="20.52"/><rect class="cls-1" x="7.44" y="42.9" width="29.88" height="4.32" rx="2.16"/><rect class="cls-1" x="10.59" y="47.94" width="23.58" height="4.5"/><rect class="cls-1" x="4.83" y="52.44" width="34.38" height="3.96"/><polygon class="cls-2" points="10.59 22.02 11.3 18.6 8.89 16.08 12.36 15.7 14.02 12.63 15.45 15.81 18.89 16.43 16.3 18.78 16.77 22.24 13.74 20.51 10.59 22.02"/><path class="cls-3" d="M26.83,12.28a10.49,10.49,0,0,1,2.58.7l-.6-.25a10.76,10.76,0,0,1,1.71.91l.4.28a1.21,1.21,0,0,0,.2.14s-.48-.38-.22-.16a10.1,10.1,0,0,1,.77.68q.34.35.66.72l.16.18c.19.23-.34-.46-.17-.21l.29.39a10.28,10.28,0,0,1,1,1.76l-.25-.6,0,.11a2.78,2.78,0,0,0,1.15,1.5,2.51,2.51,0,0,0,3.42-.9,2.43,2.43,0,0,0,.25-1.93,13,13,0,0,0-3.93-5.39,12.82,12.82,0,0,0-6.09-2.75,2.73,2.73,0,0,0-1.92.25,2.51,2.51,0,0,0-1.15,1.5,2.48,2.48,0,0,0,.25,1.92,2.41,2.41,0,0,0,1.49,1.15Z"/></g></g></svg>