<svg xmlns="http://www.w3.org/2000/svg" viewBox="0 0 461.53 347.13"><defs><style>.cls-1{fill:#efb912;stroke:#000;stroke-miterlimit:10;}.cls-2{font-size:60px;}.cls-14,.cls-2{font-family:Aloevera-Black;font-weight:800;}.cls-3{letter-spacing:-0.04em;}.cls-4{letter-spacing:-0.02em;}.cls-14,.cls-5{font-size:24px;}.cls-5{font-family:MyriadPro-Regular, Myriad Pro;}.cls-6{letter-spacing:0em;}.cls-7{letter-spacing:0.01em;}.cls-8{letter-spacing:-0.01em;}.cls-9{letter-spacing:0em;}.cls-10{letter-spacing:-0.02em;}.cls-11{letter-spacing:-0.01em;}.cls-12{letter-spacing:0em;}.cls-13{letter-spacing:-0.01em;}.cls-15{letter-spacing:-0.02em;}</style></defs><g id="Calque_2" data-name="Calque 2"><g id="Calque_1-2" data-name="Calque 1"><path class="cls-1" d="M415.26,110.53,87.3,3.8C44.47-10.14.5,21.79.5,66.84V280.29c0,45,44,77,86.8,63l328-106.73C476.29,216.74,476.29,130.39,415.26,110.53Z"/><text class="cls-2" transform="translate(31.03 141.97)">Dr <tspan class="cls-3" x="87.18" y="0">F</tspan><tspan x="116.58" y="0">a</tspan><tspan class="cls-4" x="154.86" y="0">t</tspan><tspan x="180.36" y="0">alis</tspan></text><text/><text class="cls-5" transform="translate(31.03 179.74)"><tspan class="cls-6">D</tspan><tspan x="16.08" y="0">o</tspan><tspan class="cls-7" x="29.26" y="0">c</tspan><tspan class="cls-8" x="40.32" y="0">t</tspan><tspan class="cls-9" x="48.12" y="0">eur </tspan><tspan class="cls-10" x="86.3" y="0">P</tspan><tspan x="98.54" y="0">s</tspan><tspan class="cls-11" x="108.05" y="0">y</tspan><tspan x="119.11" y="0">chi</tspan><tspan class="cls-12" x="148.8" y="0">a</tspan><tspan x="160.27" y="0">t</tspan><tspan class="cls-13" x="168.21" y="0">r</tspan><tspan x="175.82" y="0">e</tspan></text><text class="cls-14" transform="translate(32.33 212.35)">Con<tspan class="cls-15" x="46.97" y="0">t</tspan><tspan x="57.17" y="0">act : </tspan></text><path d="M38.8,230.29v5.18H44v1.05H38.8v5.34h-1v-5.34H32.58v-1.05h5.17v-5.18Z"/><path d="M45.9,241.86v-.07c0-1.72,1.47-3.86,4.22-6,2.39-1.87,3-2.44,3-4.18a2.6,2.6,0,0,0-2.83-2.81c-1.89,0-2.88.9-3.24,2.92H46a4.08,4.08,0,0,1,4.31-3.93,3.65,3.65,0,0,1,4,3.76c0,2.14-.9,2.85-3.46,4.95-2,1.66-3.27,3-3.69,4.33h7.72l-.19,1Z"/><path d="M63.94,230.81a2.57,2.57,0,0,0-2.71-2c-2.65,0-3.59,2.47-3.66,6.11a3.89,3.89,0,0,1,3.76-2.36c2.77,0,4.18,2,4.18,4.62s-1.41,5-4.39,5c-3.67,0-4.64-3.09-4.64-7s1.22-7.35,4.79-7.35a3.52,3.52,0,0,1,3.78,3Zm.41,6.41c0-1.7-.67-3.68-3.1-3.68-2,0-3.45,1.3-3.45,3.72,0,1.15.61,3.86,3.34,3.86C63.49,241.12,64.35,239.17,64.35,237.22Z"/><path d="M70.57,241.86v-12.5A9.37,9.37,0,0,1,67.46,231v-1a11.33,11.33,0,0,0,3.3-2.05h.9v13.92Z"/><path d="M86.74,241.86V238H80.08v-1L86.72,228h1.09v9h1.87l-.15,1H87.81v3.87Zm0-9.05c0-.78,0-2.5,0-3.42-.56,1-3.86,5.39-5.46,7.6h5.42Z"/><path d="M99.89,229.07h-6c-.14,1.36-.56,4-.73,4.83a3.78,3.78,0,0,1,3.17-1.37c2.39,0,4.09,1.62,4.09,4.58,0,2.71-1.38,5-4.47,5a4.13,4.13,0,0,1-4.32-3.61h1.11a3.19,3.19,0,0,0,3.27,2.6c2.19,0,3.28-1.53,3.28-3.92,0-2-.88-3.62-3-3.62a3.2,3.2,0,0,0-3.34,2.1l-1-.29c.44-1.85.92-5.69,1.11-7.33h7Z"/><path d="M116.43,229.07h-5.94c-.14,1.36-.56,4-.73,4.83a3.77,3.77,0,0,1,3.17-1.37c2.39,0,4.09,1.62,4.09,4.58,0,2.71-1.38,5-4.47,5a4.14,4.14,0,0,1-4.33-3.61h1.12a3.19,3.19,0,0,0,3.27,2.6c2.19,0,3.28-1.53,3.28-3.92,0-2-.88-3.62-3-3.62a3.19,3.19,0,0,0-3.33,2.1l-1-.29c.44-1.85.92-5.69,1.11-7.33h7Z"/><path d="M127.69,229.07h-5.94c-.15,1.36-.57,4-.74,4.83a3.78,3.78,0,0,1,3.17-1.37c2.4,0,4.1,1.62,4.1,4.58,0,2.71-1.39,5-4.47,5a4.14,4.14,0,0,1-4.33-3.61h1.11a3.2,3.2,0,0,0,3.28,2.6c2.18,0,3.27-1.53,3.27-3.92,0-2-.88-3.62-3-3.62a3.2,3.2,0,0,0-3.34,2.1l-1-.29c.44-1.85.93-5.69,1.12-7.33h7Z"/><path d="M131.68,239.09a2.7,2.7,0,0,0,2.84,2c3.17,0,3.4-4.49,3.46-6.36a3.63,3.63,0,0,1-3.59,2c-2.41,0-4-1.8-4-4.37a4.25,4.25,0,0,1,4.34-4.53c3.13,0,4.39,2.5,4.39,6.32,0,3.44-.61,8-4.6,8a3.69,3.69,0,0,1-3.94-3Zm-.21-6.79c0,2,1.13,3.36,3,3.36,2.31,0,3.28-1.21,3.28-3.27,0-.8-.27-3.59-3.15-3.59C132.39,228.8,131.47,230.35,131.47,232.3Z"/><path d="M146.7,241.86v-.07c0-1.72,1.47-3.86,4.22-6,2.39-1.87,3-2.44,3-4.18a2.6,2.6,0,0,0-2.84-2.81c-1.89,0-2.87.9-3.23,2.92h-1.07a4.08,4.08,0,0,1,4.3-3.93,3.66,3.66,0,0,1,4,3.76c0,2.14-.9,2.85-3.46,4.95-2,1.66-3.28,3-3.7,4.33h7.73l-.19,1Z"/><path d="M157.85,241.86v-.07c0-1.72,1.47-3.86,4.22-6,2.39-1.87,3-2.44,3-4.18a2.6,2.6,0,0,0-2.83-2.81c-1.89,0-2.88.9-3.24,2.92h-1.07a4.08,4.08,0,0,1,4.31-3.93,3.65,3.65,0,0,1,4,3.76c0,2.14-.9,2.85-3.46,4.95-2,1.66-3.28,3-3.7,4.33h7.73l-.19,1Z"/></g></g></svg>