<svg xmlns="http://www.w3.org/2000/svg" viewBox="0 0 543.35 347.13"><defs><style>.cls-1{fill:#f553a7;stroke:#000;stroke-miterlimit:10;}.cls-2{font-size:60px;}.cls-13,.cls-2{font-family:Aloevera-Black;font-weight:800;}.cls-3{letter-spacing:-0.02em;}.cls-13,.cls-4{font-size:24px;}.cls-15,.cls-4{font-family:MyriadPro-Regular, Myriad Pro;}.cls-5{letter-spacing:0em;}.cls-6{letter-spacing:0.01em;}.cls-7{letter-spacing:-0.01em;}.cls-8{letter-spacing:0em;}.cls-9{letter-spacing:-0.02em;}.cls-10{letter-spacing:-0.01em;}.cls-11{letter-spacing:0em;}.cls-12{letter-spacing:-0.01em;}.cls-14{letter-spacing:-0.02em;}.cls-15{font-size:12px;}</style></defs><g id="Calque_2" data-name="Calque 2"><g id="Calque_1-2" data-name="Calque 1"><path class="cls-1" d="M415.26,110.53,87.3,3.8C44.47-10.14.5,21.79.5,66.84V280.29c0,45,44,77,86.8,63l328-106.73C476.29,216.74,476.29,130.39,415.26,110.53Z"/><text class="cls-2" transform="translate(31.03 141.97)">Dr <tspan class="cls-3" x="87.18" y="0">R</tspan><tspan x="122.7" y="0">azor</tspan></text><text class="cls-4" transform="translate(31.03 179.74)"><tspan class="cls-5">D</tspan><tspan x="16.08" y="0">o</tspan><tspan class="cls-6" x="29.26" y="0">c</tspan><tspan class="cls-7" x="40.32" y="0">t</tspan><tspan class="cls-8" x="48.12" y="0">eur </tspan><tspan class="cls-9" x="86.3" y="0">P</tspan><tspan x="98.54" y="0">s</tspan><tspan class="cls-10" x="108.05" y="0">y</tspan><tspan x="119.11" y="0">chi</tspan><tspan class="cls-11" x="148.8" y="0">a</tspan><tspan x="160.27" y="0">t</tspan><tspan class="cls-12" x="168.21" y="0">r</tspan><tspan x="175.82" y="0">e</tspan></text><text class="cls-13" transform="translate(32.33 212.35)">Con<tspan class="cls-14" x="46.97" y="0">t</tspan><tspan x="57.17" y="0">act : </tspan></text><path d="M38.8,230.29v5.18H44v1.05H38.8v5.34h-1v-5.34H32.58v-1.05h5.17v-5.18Z"/><path d="M45.9,241.86v-.07c0-1.72,1.47-3.86,4.22-6,2.39-1.87,3-2.44,3-4.18a2.6,2.6,0,0,0-2.83-2.81c-1.89,0-2.88.9-3.24,2.92H46a4.08,4.08,0,0,1,4.31-3.93,3.66,3.66,0,0,1,4,3.76c0,2.14-.91,2.85-3.47,4.95-2,1.66-3.27,3-3.69,4.33h7.72l-.19,1Z"/><path d="M63.94,230.81a2.57,2.57,0,0,0-2.71-2c-2.65,0-3.59,2.47-3.66,6.11a3.89,3.89,0,0,1,3.76-2.36c2.77,0,4.18,2,4.18,4.62s-1.41,5-4.39,5c-3.67,0-4.64-3.09-4.64-7s1.22-7.35,4.79-7.35a3.52,3.52,0,0,1,3.78,3Zm.42,6.41c0-1.7-.68-3.68-3.11-3.68-2,0-3.45,1.3-3.45,3.72,0,1.15.61,3.86,3.34,3.86C63.49,241.12,64.36,239.17,64.36,237.22Z"/><path d="M70.57,241.86v-12.5A9.37,9.37,0,0,1,67.46,231v-1a11.33,11.33,0,0,0,3.3-2.05h.9v13.92Z"/><path d="M80.27,241.86v-.07c0-1.72,1.47-3.86,4.22-6,2.4-1.87,3-2.44,3-4.18a2.6,2.6,0,0,0-2.84-2.81c-1.89,0-2.87.9-3.23,2.92H80.36a4.08,4.08,0,0,1,4.3-3.93,3.66,3.66,0,0,1,4,3.76c0,2.14-.9,2.85-3.46,4.95-2,1.66-3.28,3-3.7,4.33h7.73l-.19,1Z"/><path d="M94.15,241.86v-12.5a9.33,9.33,0,0,1-3.1,1.62v-1a11.42,11.42,0,0,0,3.29-2.05h.91v13.92Z"/><path d="M103.86,241.86v-.07c0-1.72,1.47-3.86,4.22-6,2.39-1.87,3-2.44,3-4.18a2.6,2.6,0,0,0-2.84-2.81c-1.88,0-2.87.9-3.23,2.92h-1.07a4.08,4.08,0,0,1,4.3-3.93,3.66,3.66,0,0,1,4,3.76c0,2.14-.9,2.85-3.46,4.95-2,1.66-3.28,3-3.7,4.33h7.73l-.19,1Z"/><path d="M121.89,230.81a2.55,2.55,0,0,0-2.7-2c-2.65,0-3.59,2.47-3.66,6.11a3.89,3.89,0,0,1,3.76-2.36c2.77,0,4.18,2,4.18,4.62s-1.41,5-4.39,5c-3.67,0-4.64-3.09-4.64-7s1.22-7.35,4.79-7.35a3.52,3.52,0,0,1,3.78,3Zm.42,6.41c0-1.7-.67-3.68-3.1-3.68-2,0-3.45,1.3-3.45,3.72,0,1.15.61,3.86,3.34,3.86C121.45,241.12,122.31,239.17,122.31,237.22Z"/><path d="M125.57,238a3.81,3.81,0,0,1,2.67-3.69,3.12,3.12,0,0,1-2.06-3c0-2,1.36-3.55,4-3.55a3.49,3.49,0,0,1,3.84,3.53,3,3,0,0,1-2,2.94,3.71,3.71,0,0,1,2.6,3.69c0,2.5-1.89,4.16-4.58,4.16S125.57,240.45,125.57,238Zm7.92,0c0-2-1.24-3.13-3.38-3.13-2.38,0-3.41,1.39-3.41,3.13a3.09,3.09,0,0,0,3.38,3.17C132.1,241.12,133.49,240,133.49,238Zm-6.18-6.67c0,1.32.8,2.54,2.88,2.54s2.73-1,2.73-2.46a2.5,2.5,0,0,0-2.77-2.58C128.07,228.78,127.31,229.87,127.31,231.28Z"/><path d="M142.14,238a3.8,3.8,0,0,1,2.67-3.69,3.11,3.11,0,0,1-2.06-3c0-2,1.36-3.55,4-3.55a3.49,3.49,0,0,1,3.84,3.53,3,3,0,0,1-2,2.94,3.71,3.71,0,0,1,2.6,3.69c0,2.5-1.89,4.16-4.58,4.16S142.14,240.45,142.14,238Zm7.92,0c0-2-1.24-3.13-3.39-3.13-2.37,0-3.4,1.39-3.4,3.13a3.09,3.09,0,0,0,3.38,3.17C148.67,241.12,150.06,240,150.06,238Zm-6.18-6.67c0,1.32.8,2.54,2.88,2.54s2.73-1,2.73-2.46a2.5,2.5,0,0,0-2.77-2.58C144.64,228.78,143.88,229.87,143.88,231.28Z"/><path d="M154.57,239.09a2.7,2.7,0,0,0,2.84,2c3.17,0,3.4-4.49,3.46-6.36a3.63,3.63,0,0,1-3.59,2c-2.41,0-4.05-1.8-4.05-4.37a4.25,4.25,0,0,1,4.34-4.53c3.13,0,4.39,2.5,4.39,6.32,0,3.44-.61,8-4.6,8a3.69,3.69,0,0,1-3.94-3Zm-.21-6.79c0,2,1.13,3.36,3,3.36,2.31,0,3.28-1.21,3.28-3.27,0-.8-.27-3.59-3.15-3.59C155.29,228.8,154.36,230.35,154.36,232.3Z"/><text class="cls-15" transform="translate(500.69 288.29)">F2B90F</text></g></g></svg>